<svg width="81" height="82" viewBox="0 0 81 82" fill="none" xmlns="http://www.w3.org/2000/svg">
<g clip-path="url(#clip0_126_5037)">
<path d="M37.5415 2.91663V11.1104C30.5753 11.9952 24.1005 15.1698 19.1351 20.1352C14.1697 25.1007 10.995 31.5754 10.1103 38.5416H1.9165V46.4583H10.1103C10.995 53.4245 14.1697 59.8993 19.1351 64.8647C24.1005 69.8301 30.5753 73.0048 37.5415 73.8895V82.0833H45.4582V73.8895C52.4244 73.0048 58.8991 69.8301 63.8646 64.8647C68.83 59.8993 72.0046 53.4245 72.8894 46.4583H81.0832V38.5416H72.8894C72.0046 31.5754 68.83 25.1007 63.8646 20.1352C58.8991 15.1698 52.4244 11.9952 45.4582 11.1104V2.91663M37.5415 19.0666V26.6666H45.4582V19.1062C55.354 20.7291 63.2707 28.6458 64.9332 38.5416H57.3332V46.4583H64.8936C63.2707 56.3541 55.354 64.2708 45.4582 65.9333V58.3333H37.5415V65.8937C27.6457 64.2708 19.729 56.3541 18.0665 46.4583H25.6665V38.5416H18.1061C19.729 28.6458 27.6457 20.7291 37.5415 19.0666ZM41.4998 38.5416C40.45 38.5416 39.4432 38.9587 38.7009 39.701C37.9585 40.4433 37.5415 41.4501 37.5415 42.5C37.5415 43.5498 37.9585 44.5566 38.7009 45.2989C39.4432 46.0413 40.45 46.4583 41.4998 46.4583C42.5497 46.4583 43.5565 46.0413 44.2988 45.2989C45.0411 44.5566 45.4582 43.5498 45.4582 42.5C45.4582 41.4501 45.0411 40.4433 44.2988 39.701C43.5565 38.9587 42.5497 38.5416 41.4998 38.5416Z" fill="black"/>
<path d="M35.5415 -0.083374V8.11038C28.5753 8.99515 22.1005 12.1698 17.1351 17.1352C12.1697 22.1007 8.99503 28.5754 8.11025 35.5416H-0.0834961V43.4583H8.11025C8.99503 50.4245 12.1697 56.8993 17.1351 61.8647C22.1005 66.8301 28.5753 70.0048 35.5415 70.8895V79.0833H43.4582V70.8895C50.4244 70.0048 56.8991 66.8301 61.8646 61.8647C66.83 56.8993 70.0046 50.4245 70.8894 43.4583H79.0832V35.5416H70.8894C70.0046 28.5754 66.83 22.1007 61.8646 17.1352C56.8991 12.1698 50.4244 8.99515 43.4582 8.11038V-0.083374M35.5415 16.0666V23.6666H43.4582V16.1062C53.354 17.7291 61.2707 25.6458 62.9332 35.5416H55.3332V43.4583H62.8936C61.2707 53.3541 53.354 61.2708 43.4582 62.9333V55.3333H35.5415V62.8937C25.6457 61.2708 17.729 53.3541 16.0665 43.4583H23.6665V35.5416H16.1061C17.729 25.6458 25.6457 17.7291 35.5415 16.0666ZM39.4998 35.5416C38.45 35.5416 37.4432 35.9587 36.7009 36.701C35.9585 37.4433 35.5415 38.4501 35.5415 39.5C35.5415 40.5498 35.9585 41.5566 36.7009 42.2989C37.4432 43.0413 38.45 43.4583 39.4998 43.4583C40.5497 43.4583 41.5565 43.0413 42.2988 42.2989C43.0411 41.5566 43.4582 40.5498 43.4582 39.5C43.4582 38.4501 43.0411 37.4433 42.2988 36.701C41.5565 35.9587 40.5497 35.5416 39.4998 35.5416Z" fill="#9E2311" stroke="black"/>
</g>
<defs>
<clipPath id="clip0_126_5037">
<rect width="81" height="82" fill="white"/>
</clipPath>
</defs>
</svg>
