        <svg
          width="20"
          height="22"
          viewBox="0 0 20 22"
          fill="none"
          xmlns="http://www.w3.org/2000/svg"
        >
          <rect width="20" height="22" fill="white" />
          <g clip-path="url(#clip0_5_215)">
            <path
              d="M18.1818 1.63095H14.0568C13.5472 1.11801 12.9223 0.707505 12.2231 0.426412C11.5239 0.14532 10.7663 0 10 0C9.23369 0 8.47605 0.14532 7.77686 0.426412C7.07768 0.707505 6.45276 1.11801 5.94318 1.63095H1.81818C1.33597 1.63095 0.873508 1.80263 0.532533 2.10823C0.191558 2.41382 0 2.8283 0 3.26047V20.3705C0 20.8027 0.191558 21.2171 0.532533 21.5227C0.873508 21.8283 1.33597 22 1.81818 22H18.1818C18.664 22 19.1265 21.8283 19.4675 21.5227C19.8084 21.2171 20 20.8027 20 20.3705V3.26047C20 2.8283 19.8084 2.41382 19.4675 2.10823C19.1265 1.80263 18.664 1.63095 18.1818 1.63095ZM10 1.63095C10.9635 1.63364 11.8867 1.97786 12.568 2.58847C13.2493 3.19908 13.6334 4.02647 13.6364 4.89H6.36364C6.36663 4.02647 6.75071 3.19908 7.43201 2.58847C8.11332 1.97786 9.0365 1.63364 10 1.63095ZM18.1818 20.3705H1.81818V3.26047H4.86364C4.65331 3.78309 4.54565 4.33443 4.54545 4.89V5.70476C4.54545 5.92085 4.64123 6.12809 4.81172 6.28088C4.98221 6.43368 5.21344 6.51952 5.45455 6.51952H14.5455C14.7866 6.51952 15.0178 6.43368 15.1883 6.28088C15.3588 6.12809 15.4545 5.92085 15.4545 5.70476V4.89C15.4543 4.33443 15.3467 3.78309 15.1364 3.26047H18.1818V20.3705Z"
              fill="#545454"
            />
          </g>
          <defs>
            <clipPath id="clip0_5_215">
              <rect width="20" height="22" fill="white" />
            </clipPath>
          </defs>
        </svg>